_states
version=1
nRows=53
nColumns=11
inDegrees=yes

# SIMM Motion File Header:
name _states
datacolumns 11
datarows 53
otherdata 1
range 2.31755301 2.39796698
endheader
time	/jointset/boatJoint/bJoint_3/value	/jointset/boatJoint/bJoint_3/speed	/jointset/boatJoint/bJoint_4/value	/jointset/boatJoint/bJoint_4/speed	/jointset/baseJoint/baseangle/value	/jointset/baseJoint/baseangle/speed	/jointset/lowerJoint/kneeangle/value	/jointset/lowerJoint/kneeangle/speed	/jointset/bladeJoint/bladeangle/value	/jointset/bladeJoint/bladeangle/speed
      2.31755301	      0.47869827	      5.80476684	      0.48330275	      6.01777815	   -511.64440141	  -3214.91000694	    607.05512102	   2124.61101927	    -98.13988587	   1077.14036252
      2.31963169	      0.49101130	      6.03898124	      0.49538852	      5.59540599	   -518.51846864	  -3398.14204286	    611.43148470	   2086.77381259	    -95.66962788	   1298.11977653
      2.32217244	      0.50667741	      6.28178145	      0.50881999	      4.95499493	   -527.42280760	  -3606.69759110	    616.68179474	   2047.76740246	    -92.04940131	   1545.57051331
      2.32471319	      0.52285677	      6.43565967	      0.52046073	      4.18980666	   -536.81439358	  -3778.09549309	    621.84781003	   2021.28322218	    -87.85791485	   1743.34202378
      2.32725394	      0.53927035	      6.46053093	      0.53003524	      3.33671550	   -546.57248332	  -3892.21541770	    626.96792292	   2012.42863284	    -83.25430222	   1866.20671161
      2.32979469	      0.55555622	      6.33337795	      0.53739113	      2.45438362	   -556.53178015	  -3934.81358607	    632.09227750	   2025.07780505	    -78.45400228	   1896.04662732
      2.33233544	      0.57132708	      6.05826928	      0.54254030	      1.61082949	   -566.50214719	  -3901.01149496	    637.27773813	   2060.47376207	    -73.70401439	   1826.74024440
      2.33437365	      0.58337311	      5.75147118	      0.54519163	      1.00359857	   -574.38020334	  -3822.33872326	    641.51978088	   2104.15311569	    -70.09621116	   1704.30175140
      2.33617393	      0.59345002	      5.43855458	      0.54656852	      0.53798710	   -581.17426782	  -3721.09770487	    645.34997549	   2152.29800013	    -67.15740449	   1554.83996184
      2.33797421	      0.60294357	      5.10660926	      0.54717326	      0.14635988	   -587.76487342	  -3597.62193922	    649.27355262	   2207.60106844	    -64.51557549	   1375.98561553
      2.33977449	      0.61183617	      4.77368774	      0.54714011	     -0.17115622	   -594.11926952	  -3460.05766260	    653.30184896	   2268.37309045	    -62.21481081	   1177.57417893
      2.34157477	      0.62013975	      4.45428105	      0.54659833	     -0.41993822	   -600.21940617	  -3316.43493981	    657.44340480	   2333.22958164	    -60.28170000	    969.02022072
      2.34375498	      0.62945695	      4.09944602	      0.54542639	     -0.64200663	   -607.26124146	  -3144.48423519	    662.61976886	   2415.95211727	    -58.44725360	    714.25702766
      2.34593520	      0.63804666	      3.78771944	      0.54384941	     -0.79455089	   -613.93905410	  -2983.87130291	    667.98088254	   2502.68886403	    -57.16177490	    466.81801674
      2.34811541	      0.64600557	      3.52055038	      0.54199953	     -0.89505390	   -620.28533883	  -2841.20986693	    673.53573224	   2593.81295874	    -56.40175422	    232.94377510
      2.35005080	      0.65261832	      3.31806996	      0.54020758	     -0.95252982	   -625.67631778	  -2732.73998868	    678.63775066	   2679.36756116	    -56.14084194	     38.84106547
      2.35153959	      0.65745491	      3.18192401	      0.53876633	     -0.98173739	   -629.69063566	  -2661.86426927	    682.67814269	   2749.03910637	    -56.18859473	   -101.76604321
      2.35302837	      0.66210005	      3.06053866	      0.53728933	     -1.00096157	   -633.60779181	  -2602.24746283	    686.82529811	   2822.93852105	    -56.44036152	   -235.34181885
      2.35484576	      0.66754039	      2.92926609	      0.53545691	     -1.01385870	   -638.28242389	  -2544.93179212	    692.04283116	   2920.30589593	    -57.00995443	   -390.09717143
      2.35719264	      0.67423749	      2.78150925	      0.53307104	     -1.01711667	   -644.19241910	  -2496.36031742	    699.05785179	   3061.07979129	    -58.14964207	   -579.53527649
      2.35953952	      0.68060986	      2.65132574	      0.53069249	     -1.00788621	   -650.02275923	  -2477.26553946	    706.42844349	   3224.49734274	    -59.72477266	   -762.13962139
      2.36239721	      0.68797718	      2.50638285	      0.52784733	     -0.98009173	   -657.11821846	  -2496.92423225	    715.97550486	   3466.49024721	    -62.21913631	   -984.58558518
      2.36479778	      0.69385161	      2.38751229	      0.52553978	     -0.93919282	   -663.17405071	  -2555.50437654	    724.59224695	   3722.08496856	    -64.81621495	  -1181.69460962
      2.36689162	      0.69873845	      2.27896196	      0.52362703	     -0.88406474	   -668.61196755	  -2645.57135769	    732.66731478	   4001.62448211	    -67.48509889	  -1371.24997862
      2.36869410	      0.70275531	      2.17610934	      0.52209278	     -0.81391130	   -673.47827393	  -2760.66685775	    740.14117414	   4302.25428942	    -70.12010837	  -1556.85593678
      2.37024642	      0.70605698	      2.07540459	      0.52089281	     -0.72698576	   -677.86401879	  -2896.41577762	    747.05997249	   4623.13208979	    -72.67691149	  -1742.04677709
      2.37158918	      0.70877775	      1.97450316	      0.51998385	     -0.62094303	   -681.85191394	  -3049.76620913	    753.48878741	   4963.62763865	    -75.13845259	  -1929.24567900
      2.37276044	      0.71103176	      1.87165059	      0.51932771	     -0.49259107	   -685.51932302	  -3218.77064465	    759.50678756	   5323.66386673	    -77.50709013	  -2120.32452943
      2.37379495	      0.71291441	      1.76527542	      0.51889427	     -0.33737063	   -688.94108890	  -3402.48531866	    765.20525826	   5704.02111020	    -79.79978027	  -2317.00877327
      2.37472523	      0.71450597	      1.65357838	      0.51866400	     -0.14825106	   -692.19609903	  -3601.12353962	    770.69418938	   6106.97283181	    -82.04811298	  -2521.35983856
      2.37565551	      0.71598521	      1.52323746	      0.51863960	      0.10952608	   -695.65246484	  -3835.89808696	    776.58821434	   6575.86250250	    -84.50021882	  -2755.51261064
      2.37647565	      0.71718132	      1.39083525	      0.51884982	      0.41818642	   -698.89394999	  -4073.28451529	    782.17018409	   7044.42512280	    -86.85346872	  -2986.72206349
      2.37729579	      0.71826218	      1.24262562	      0.51935434	      0.83233194	   -702.33980732	  -4332.16987550	    788.15369115	   7550.95500632	    -89.40391104	  -3234.39991304
      2.37787972	      0.71895521	      1.13056075	      0.51994656	      1.20832228	   -704.92421397	  -4518.69234311	    792.66942254	   7913.69346597	    -91.34436065	  -3410.63967285
      2.37846365	      0.71958251	      1.01859297	      0.52078046	      1.66085885	   -707.61439518	  -4691.57885096	    797.39042059	   8248.49725530	    -93.38431624	  -3572.58075524
      2.37904757	      0.72014636	      0.91483123	      0.52190099	      2.18875031	   -710.39683751	  -4831.09586910	    802.28974666	   8517.60051207	    -95.51035264	  -3702.19082791
      2.37963150	      0.72065446	      0.82930622	      0.52334836	      2.77631625	   -713.24572775	  -4915.86782080	    807.31694055	   8680.14940222	    -97.69782289	  -3779.99163353
      2.38021543	      0.72112021	      0.77099927	      0.52514892	      3.39219361	   -716.12413705	  -4930.64548162	    812.40030368	   8707.01209859	    -99.91195726	  -3792.10056607
      2.38079936	      0.72156107	      0.74424526	      0.52730772	      3.99672050	   -718.98994154	  -4873.70449349	    817.45820836	   8594.87391855	   -102.11325193	  -3736.92726078
      2.38138329	      0.72199521	      0.74721890	      0.52980738	      4.55485284	   -721.80437140	  -4757.68898736	    822.41541411	   8367.84464343	   -104.26523626	  -3625.93735768
      2.38196722	      0.72243829	      0.77362123	      0.53261391	      5.04565326	   -724.53875146	  -4603.12078640	    827.21594047	   8065.09728139	   -106.34060492	  -3477.78204174
      2.38267380	      0.72300243	      0.82600497	      0.53636057	      5.54200768	   -727.71775462	  -4393.21124191	    832.77024064	   7652.32576126	   -108.72707996	  -3274.94889191
      2.38338038	      0.72360827	      0.89008075	      0.54042250	      5.94053586	   -730.74692949	  -4182.33117249	    838.02897806	   7234.83885841	   -110.96784088	  -3068.37085392
      2.38408695	      0.72426118	      0.95824552	      0.54473649	      6.25849203	   -733.63126154	  -3984.80404698	    842.99972254	   6840.19529584	   -113.06547203	  -2871.28318193
      2.38479353	      0.72496236	      1.02622985	      0.54925191	      6.51344815	   -736.38266637	  -3806.59070638	    847.70342444	   6479.97919188	   -115.02900812	  -2689.30915326
      2.38572636	      0.72596023	      1.11236052	      0.55545678	      6.77811871	   -739.83576683	  -3602.71056489	    853.54779749	   6060.89148689	   -117.43514974	  -2474.13947925
      2.38665920	      0.72703592	      1.19298039	      0.56187935	      6.98366933	   -743.11447839	  -3432.04030394	    859.02963900	   5701.48100358	   -119.65318402	  -2285.43709345
      2.38806205	      0.72878874	      1.30404587	      0.57184938	      7.21793858	   -747.77936547	  -3228.07232582	    866.70283822	   5254.80698607	   -122.68397665	  -2042.78785544
      2.38983108	      0.73120909	      1.43013617	      0.58481811	      7.43238512	   -753.31467829	  -3041.31424991	    875.59190890	   4814.31562658	   -126.06619628	  -1789.12602877
      2.39160011	      0.73384256	      1.54589462	      0.59811405	      7.59264380	   -758.57409563	  -2913.21750937	    883.79359385	   4471.84830859	   -129.03705190	  -1574.82671787
      2.39336913	      0.73667544	      1.65634684	      0.61166213	      7.72003748	   -763.64791433	  -2829.63012233	    891.45422013	   4198.75142946	   -131.65257340	  -1385.38830197
      2.39566806	      0.74064678	      1.79909420	      0.62957083	      7.85559632	   -770.07814685	  -2773.46800139	    900.76954561	   3916.93852721	   -134.57516884	  -1159.82960267
      2.39796698	      0.74495302	      1.94920138	      0.64776526	      7.97038297	   -776.43772297	  -2766.91221668	    909.50794188	   3693.25270040	   -136.99170280	   -942.79132109
